<?xml version="1.0" encoding="UTF-8"?>
<svg width="126px" height="71px" viewBox="0 0 126 71" version="1.1" xmlns="http://www.w3.org/2000/svg" xmlns:xlink="http://www.w3.org/1999/xlink">
    <!-- Generator: Sketch 47.1 (45422) - http://www.bohemiancoding.com/sketch -->
    <title>logo-with-border@1,5x</title>
    <desc>Created with Sketch.</desc>
    <defs>
        <rect id="path-1" x="0" y="0" width="126" height="71" rx="6"></rect>
    </defs>
    <g id="In-banners" stroke="none" stroke-width="1" fill="none" fill-rule="evenodd">
        <g id="Artboard-5" transform="translate(-34.000000, -43.000000)">
            <g id="logo-with-border" transform="translate(34.000000, 43.000000)">
                <g id="Rectangle" opacity="0.960000038">
                    <use fill="#FFFFFF" fill-rule="evenodd" xlink:href="#path-1"></use>
                    <rect stroke="#F1F1F1" stroke-width="1" x="0.5" y="0.5" width="125" height="70" rx="6"></rect>
                </g>
                <g id="Logo-/-White-version" transform="translate(13.000000, 13.000000)">
                    <path d="M36,0 L45,0 L45,18 L36,18 L36,0 Z M27,18 L36,18 L36,27 L27,27 L27,18 Z M9,18 L18,18 L18,27 L9,27 L9,18 Z M18,27 L27,27 L27,45 L18,45 L18,27 Z M0,0 L9,0 L9,18 L0,18 L0,0 Z" id="Combined-Shape" fill="#000000"></path>
                    <path d="M62,0 L91,0 L91,9 L62,9 L62,0 Z M91,9 L100,9 L100,18 L91,18 L91,9 Z M53,9 L62,9 L62,18 L53,18 L53,9 Z M53,27 L62,27 L62,36 L53,36 L53,27 Z M62,18 L91,18 L91,27 L62,27 L62,18 Z M62,36 L91,36 L91,45 L62,45 L62,36 Z M91,27 L100,27 L100,36 L91,36 L91,27 Z" id="Combined-Shape" fill="#E81919"></path>
                </g>
            </g>
        </g>
    </g>
</svg>