<svg width="45" height="32" xmlns="http://www.w3.org/2000/svg"><g fill="none" fill-rule="evenodd"><rect stroke-opacity=".1" stroke="#000" fill="#FFF" x=".5" y=".5" width="44" height="31" rx="4"/><path d="M8.4023 25.83908H7.11385l-.3492 1.0977H6l1.3005-3.87356h.94526l1.31855 3.87356h-.79474l-.36727-1.0977zm-1.16804-.53448h1.0416l-.3191-.95403c-.07827-.23563-.1445-.5-.2047-.72413H7.74c-.0602.22413-.12042.49425-.19266.72413l-.31309.95403zm6.76136.95977l.12042.55747c-.1746.0862-.55994.17241-1.04762.17241-1.28845 0-2.07116-.77011-2.07116-1.94827 0-1.27587.9272-2.04598 2.1675-2.04598.48768 0 .83688.0977.9874.17241l-.16256.56322c-.19267-.08046-.45758-.14942-.79475-.14942-.82484 0-1.4209.49425-1.4209 1.42528 0 .85058.5238 1.39656 1.41488 1.39656.30104 0 .61413-.05748.8068-.14368zm4.58785 0l.12042.55747c-.1746.0862-.55994.17241-1.04762.17241-1.28845 0-2.07116-.77011-2.07116-1.94827 0-1.27587.9272-2.04598 2.16749-2.04598.48768 0 .8369.0977.98741.17241l-.16256.56322c-.19267-.08046-.45758-.14942-.79475-.14942-.82485 0-1.4209.49425-1.4209 1.42528 0 .85058.5238 1.39656 1.41488 1.39656.30104 0 .61412-.05748.80679-.14368zM22.09962 23c1.1861 0 1.8845.85632 1.8845 1.95977 0 1.29885-.82484 2.04023-1.94471 2.04023-1.14395 0-1.86645-.83333-1.86645-1.97126 0-1.18966.7827-2.02874 1.92666-2.02874zm-.01807.56897c-.73453 0-1.12589.64942-1.12589 1.44827 0 .78736.41544 1.4138 1.1259 1.4138.71647 0 1.11986-.63219 1.11986-1.44253 0-.72989-.3793-1.41954-1.11987-1.41954zm3.73892-.50575h.74056v2.25862c0 .75862.33114 1.1092.83087 1.1092.53585 0 .85495-.35058.85495-1.1092v-2.25862h.74056v2.21264c0 1.1954-.64422 1.72414-1.6196 1.72414-.93924 0-1.54734-.5-1.54734-1.7184v-2.21838zm5.90038 3.87356h-.68035v-3.87356h.84292l1.04761 1.66092c.27094.43103.50575.8793.6924 1.29885h.01204c-.04817-.51724-.06623-1.01724-.06623-1.6092v-1.35057h.68637v3.87356h-.76464l-1.05966-1.70115c-.2589-.42529-.52983-.9023-.72852-1.33908l-.01806.00575c.0301.5.03612 1.0115.03612 1.64942v1.38506zm5.37056 0v-3.2816h-1.156v-.59196H39v.59195h-1.16804v3.28161h-.74055zM17.88 5h2.97v6h-2.97V5zm-2.97 6h2.97v3h-2.97v-3zm-5.94 0h2.97v3H8.97v-3zm2.97 3h2.97v6h-2.97v-6zM6 5h2.97v6H6V5z" fill="#000"/><path d="M26.46 5h9.57v3h-9.57V5zm9.57 3H39v3h-2.97V8zM23.49 8h2.97v3h-2.97V8zm0 6h2.97v3h-2.97v-3zm2.97-3h9.57v3h-9.57v-3zm0 6h9.57v3h-9.57v-3zm9.57-3H39v3h-2.97v-3z" fill="#EA0000"/></g></svg>
