<svg width="45" height="32" viewBox="0 0 45 32" xmlns="http://www.w3.org/2000/svg"><title>y8 account+border logo</title><g fill="none" fill-rule="evenodd"><rect stroke-opacity=".1" stroke="#000" x=".5" y=".5" width="44" height="31" rx="4"/><path d="M8.402 25.84H7.114l-.35 1.097H6l1.3-3.874h.946l1.318 3.874H8.77l-.368-1.098zm-1.168-.535h1.042l-.32-.954c-.078-.236-.144-.5-.204-.725H7.74c-.06.225-.12.495-.193.725l-.313.954zm6.762.96l.12.557c-.175.086-.56.172-1.048.172-1.288 0-2.07-.77-2.07-1.948 0-1.276.926-2.046 2.167-2.046.487 0 .837.098.987.172l-.162.564a2.053 2.053 0 0 0-.795-.15c-.825 0-1.421.494-1.421 1.425 0 .851.524 1.397 1.415 1.397.3 0 .614-.057.807-.144zm4.587 0l.12.557c-.174.086-.559.172-1.047.172-1.288 0-2.07-.77-2.07-1.948 0-1.276.926-2.046 2.167-2.046.487 0 .836.098.987.172l-.163.564a2.053 2.053 0 0 0-.794-.15c-.825 0-1.421.494-1.421 1.425 0 .851.524 1.397 1.415 1.397.3 0 .614-.057.806-.144zM22.1 23c1.186 0 1.884.856 1.884 1.96 0 1.299-.825 2.04-1.945 2.04-1.144 0-1.866-.833-1.866-1.971 0-1.19.783-2.029 1.927-2.029zm-.018.569c-.735 0-1.126.65-1.126 1.448 0 .788.415 1.414 1.126 1.414.716 0 1.12-.632 1.12-1.442 0-.73-.38-1.42-1.12-1.42zm3.738-.506h.741v2.259c0 .758.331 1.109.83 1.109.537 0 .856-.35.856-1.11v-2.258h.74v2.213c0 1.195-.644 1.724-1.62 1.724-.938 0-1.547-.5-1.547-1.718v-2.219zm5.9 3.874h-.68v-3.874h.843l1.048 1.661c.271.431.506.88.692 1.299h.012a16.878 16.878 0 0 1-.066-1.61v-1.35h.687v3.874h-.765l-1.06-1.701c-.259-.426-.53-.903-.728-1.34l-.018.006c.03.5.036 1.012.036 1.65v1.385zm5.371 0v-3.282h-1.156v-.592H39v.592h-1.168v3.282h-.74zM17.88 5h2.97v6h-2.97V5zm-2.97 6h2.97v3h-2.97v-3zm-5.94 0h2.97v3H8.97v-3zm2.97 3h2.97v6h-2.97v-6zM6 5h2.97v6H6V5z" fill="#000"/><path d="M26.46 5h9.57v3h-9.57V5zm9.57 3H39v3h-2.97V8zM23.49 8h2.97v3h-2.97V8zm0 6h2.97v3h-2.97v-3zm2.97-3h9.57v3h-9.57v-3zm0 6h9.57v3h-9.57v-3zm9.57-3H39v3h-2.97v-3z" fill="#EA0000"/></g></svg>